<svg xmlns="http://www.w3.org/2000/svg" data-name="Layer 1" viewBox="0 0 100 125" x="0px" y="0px"><title>Artboard 1</title><path d="M4.35,98.12H95.65A3.39,3.39,0,0,0,99,94.73c0-17.2-21.69-24.06-31-26.22a.26.26,0,0,1-.19-.25v-3.7a28.29,28.29,0,0,0,4.74-9.38C75,52.77,76.08,49,76.66,46.9c.95-3.34,1.9-8.18-.72-11.64l-.11-.15C77.09,29,78.66,14.69,67.76,7.42a6.72,6.72,0,0,0,1.92-4.89.65.65,0,0,0-.23-.45A.68.68,0,0,0,69,1.92c-.14,0-13.77,1.55-20.34.19C41.9.72,34.49,5.84,33,11.08a9.89,9.89,0,0,0-6.46,3.65c-3,3.67-3.89,9.51-2.71,17.35.08,1,.2,2,.38,3l-.12.15c-2.61,3.46-1.66,8.3-.71,11.64.58,2.06,1.66,5.87,4.1,8.28a28.42,28.42,0,0,0,4.74,9.45v3.64a.25.25,0,0,1-.19.25c-9.33,2.15-31,9-31,26.22A3.39,3.39,0,0,0,4.35,98.12ZM50,81.68a17.88,17.88,0,0,1-14.66-7.29,7,7,0,0,0,3.19-3.79A22.7,22.7,0,0,0,43.42,73a19.73,19.73,0,0,0,13.16,0,23.18,23.18,0,0,0,4.88-2.46,7,7,0,0,0,3.2,3.84A17.89,17.89,0,0,1,50,81.68ZM29.19,45.24c-1.2-4.24-.69-5.78-.29-6.32a1.38,1.38,0,0,1,1.19-.52h.29a.64.64,0,0,0,.68-.59c0-.09.75-9.23,6.17-12.52,2.71-1.65,6.18-1.58,10.32.18C56,29.11,62.35,28.88,66.19,28c4.39,3.24,3.12,8.41,2.82,9.42l0,.13a.64.64,0,0,0,.1.61.65.65,0,0,0,.57.24,1.55,1.55,0,0,1,1.45.5c.41.54.91,2.08-.29,6.32-1.54,5.43-2.79,5.94-3.14,6a.64.64,0,0,0-.59.54c-.9,5.79-5.5,13-12.57,15.54a13.55,13.55,0,0,1-9.08,0c-7.36-2.59-11.66-9.88-12.54-15.55a.64.64,0,0,0-.59-.54C32,51.19,30.72,50.67,29.19,45.24ZM38.11,41a3.15,3.15,0,1,1,3.15,3.15A3.15,3.15,0,0,1,38.11,41Zm17.77,0A3.15,3.15,0,1,1,59,44.12,3.15,3.15,0,0,1,55.89,41Z"/><text x="0" y="115" fill="#000000" font-size="5px" font-weight="bold" font-family="'Helvetica Neue', Helvetica, Arial-Unicode, Arial, Sans-serif">Created by Gregor Cresnar</text><text x="0" y="120" fill="#000000" font-size="5px" font-weight="bold" font-family="'Helvetica Neue', Helvetica, Arial-Unicode, Arial, Sans-serif">from the Noun Project</text></svg>