<?xml version="1.0" encoding="iso-8859-1"?>
<!-- Generator: Adobe Illustrator 19.0.0, SVG Export Plug-In . SVG Version: 6.00 Build 0)  -->
<svg version="1.1" id="Capa_1" xmlns="http://www.w3.org/2000/svg" xmlns:xlink="http://www.w3.org/1999/xlink" x="0px" y="0px"
	 viewBox="0 0 448 448" style="enable-background:new 0 0 448 448;" xml:space="preserve">
<path style="fill:#FFFFFF;" d="M352,352H32c-13.6,0-24-10.4-24-24V112h368v216C376,341.6,365.6,352,352,352z"/>
<path style="fill:#ABABAB;" d="M376,112H8V56c0-13.6,10.4-24,24-24h320c13.6,0,24,10.4,24,24V112z"/>
<path style="fill:#499F61;" d="M336,416c-57.6,0-104-46.4-104-104s46.4-104,104-104s104,46.4,104,104S393.6,416,336,416z"/>
<g>
	<circle style="fill:#010101;" cx="176" cy="72" r="16"/>
	<circle style="fill:#010101;" cx="112" cy="72" r="16"/>
	<circle style="fill:#010101;" cx="48" cy="72" r="16"/>
	<path style="fill:#010101;" d="M384,211.2V56c0-17.6-14.4-32-32-32H32C14.4,24,0,38.4,0,56v272c0,17.6,14.4,32,32,32h203.2
		c17.6,37.6,56.8,64,100.8,64c61.6,0,112-50.4,112-112C448,267.2,421.6,228.8,384,211.2z M16,56c0-9.6,6.4-16,16-16h320
		c9.6,0,16,6.4,16,16v48H16V56z M32,344c-9.6,0-16-6.4-16-16V120h352v84.8c-10.4-3.2-20.8-4.8-32-4.8c-9.6,0-18.4,1.6-27.2,3.2
		l-52-52l-11.2,11.2l46.4,46.4c-40,16.8-68,56.8-68,103.2c0,11.2,1.6,21.6,4.8,32H32z M336,408c-52.8,0-96-43.2-96-96s43.2-96,96-96
		s96,43.2,96,96S388.8,408,336,408z"/>
	
		<rect x="96.367" y="222.875" transform="matrix(-0.2588 0.9659 -0.9659 -0.2588 465.1578 104.8167)" style="fill:#010101;" width="191.994" height="16"/>
	<polygon style="fill:#010101;" points="138.4,163.2 127.2,152 48,230.4 127.2,310.4 138.4,298.4 70.4,230.4 	"/>
	<polygon style="fill:#010101;" points="320,332.8 293.6,306.4 282.4,317.6 320,355.2 389.6,285.6 378.4,274.4 	"/>
</g>
<g>
</g>
<g>
</g>
<g>
</g>
<g>
</g>
<g>
</g>
<g>
</g>
<g>
</g>
<g>
</g>
<g>
</g>
<g>
</g>
<g>
</g>
<g>
</g>
<g>
</g>
<g>
</g>
<g>
</g>
</svg>
